<?xml version="1.0" encoding="UTF-8" standalone="no"?>
<!-- Created with Inkscape (http://www.inkscape.org/) -->

<svg
   xmlns:dc="http://purl.org/dc/elements/1.1/"
   xmlns:cc="http://creativecommons.org/ns#"
   xmlns:rdf="http://www.w3.org/1999/02/22-rdf-syntax-ns#"
   xmlns:svg="http://www.w3.org/2000/svg"
   xmlns="http://www.w3.org/2000/svg"
   xmlns:sodipodi="http://sodipodi.sourceforge.net/DTD/sodipodi-0.dtd"
   xmlns:inkscape="http://www.inkscape.org/namespaces/inkscape"
   sodipodi:docname="lg_strut_01.dxf"
   inkscape:version="0.48.1 r9760"
   version="1.1"
   id="svg2"
   height="1052.3622"
   width="744.09448">
  <defs
     id="defs4" />
  <sodipodi:namedview
     id="base"
     pagecolor="#ffffff"
     bordercolor="#666666"
     borderopacity="1.0"
     inkscape:pageopacity="0.0"
     inkscape:pageshadow="2"
     inkscape:zoom="0.98994949"
     inkscape:cx="241.19722"
     inkscape:cy="81.297058"
     inkscape:document-units="mm"
     inkscape:current-layer="layer1"
     showgrid="false"
     inkscape:window-width="1366"
     inkscape:window-height="710"
     inkscape:window-x="0"
     inkscape:window-y="26"
     inkscape:window-maximized="1"
     units="mm"
     inkscape:snap-global="false">
    <inkscape:grid
       type="xygrid"
       id="grid3778"
       empspacing="5"
       visible="true"
       enabled="true"
       snapvisiblegridlinesonly="true" />
  </sodipodi:namedview>
  <metadata
     id="metadata7">
    <rdf:RDF>
      <cc:Work
         rdf:about="">
        <dc:format>image/svg+xml</dc:format>
        <dc:type
           rdf:resource="http://purl.org/dc/dcmitype/StillImage" />
        <dc:title></dc:title>
      </cc:Work>
    </rdf:RDF>
  </metadata>
  <g
     inkscape:label="Layer 1"
     inkscape:groupmode="layer"
     id="layer1"
     transform="translate(0,-2.5390623e-6)">
    <path
       style="fill:#000000;fill-opacity:1;stroke:none"
       d="m 0,1052.3622 44.90625,0 C 115.84698,984.80188 207.82542,939.11783 310,926.14344 l 0,-71.1875 C 198.83633,860.99569 93.90806,890.39175 0,938.33094 L 0,1052.3622 z M 93.125,942.54969 c 0,-11.86007 9.60868,-21.46875 21.46875,-21.46875 11.86007,0 21.5,9.60868 21.5,21.46875 0,11.86007 -9.63993,21.46875 -21.5,21.46875 -11.86007,0 -21.46875,-9.60868 -21.46875,-21.46875 z m 75.0625,-25.25 c 0,-8.91065 7.21435,-16.15625 16.125,-16.15625 8.91066,0 16.125,7.2456 16.125,16.15625 0,8.91065 -7.21434,16.125 -16.125,16.125 -8.91065,0 -16.125,-7.21435 -16.125,-16.125 z m 74.71875,-20.21875 c 0,-6.6947 5.4303,-12.125 12.125,-12.125 6.6947,0 12.09375,5.4303 12.09375,12.125 0,6.6947 -5.39905,12.125 -12.09375,12.125 -6.6947,0 -12.125,-5.4303 -12.125,-12.125 z"
       id="rect3816"
       inkscape:connector-curvature="0" />
  </g>
</svg>
